<svg id="Layer_5" enable-background="new 0 0 64 64" height="512" viewBox="0 0 64 64" width="512" xmlns="http://www.w3.org/2000/svg"><g><g fill="#f0bc5e"><path d="m41 2-3 19-8-5z"/><path d="m23.002 2 3 19 3.998-2.499v-2.501l1.791-2.28z"/><path d="m55.622 36.2-7.622 1.8v.513c0 2.171.136 4.336.379 6.487h.37l7.251-2z"/><path d="m16.002 38.24-.616-.214-7.016-1.657-.368 6.631 7.252 2h.367c.243-2.151.381-4.315.381-6.487z"/></g><g><path d="m49.474 45.837 7.569-2.087-1.686-30.349c-.24-4.314-3.001-8.105-7.035-9.657l-7.136-2.744h-18.37l-7.137 2.745c-4.034 1.551-6.794 5.342-7.034 9.656l-1.687 30.349 7.569 2.087c-.472 3.679-1.295 7.308-2.475 10.847l-.116.348 2.388 5.968h35.353l2.387-5.969-.116-.348c-1.179-3.539-2.001-7.167-2.474-10.846zm-17.664-33.759-6.809-9.078h13.941zm-17.745 44.889c1.948-5.966 2.936-12.173 2.936-18.454v-19.513h-2v19.513c0 1.778-.092 3.549-.255 5.31l-5.702-1.573 1.597-28.737c.196-3.53 2.455-6.632 5.755-7.901l6.259-2.407 7.876 10.501-1.531 1.948v45.346h-13.321zm34.258 4.033h-17.323v-44.654l10.33-13.148 6.275 2.413c3.3 1.27 5.56 4.371 5.755 7.901l1.597 28.737-5.702 1.573c-.163-1.761-.255-3.531-.255-5.309v-19.513h-2v19.513c0 6.28.988 12.487 2.936 18.454z"/><path d="m21 25h6v2h-6z"/><path d="m33 27h2v2h-2z"/><path d="m33 31h2v2h-2z"/><path d="m33 23h2v2h-2z"/><path d="m33 55h2v2h-2z"/><path d="m33 51h2v2h-2z"/><path d="m33 39h2v2h-2z"/><path d="m33 43h2v2h-2z"/><path d="m33 35h2v2h-2z"/><path d="m33 47h2v2h-2z"/></g></g></svg>