<?xml version="1.0" encoding="utf-8"?>
<!-- Generator: Adobe Illustrator 19.2.1, SVG Export Plug-In . SVG Version: 6.00 Build 0)  -->
<svg version="1.1" id="layer" xmlns="http://www.w3.org/2000/svg" xmlns:xlink="http://www.w3.org/1999/xlink" height="50pt" viewBox="20 245 600 150" width="170pt" style="enable-background:new 0 0 652 652;" xml:space="preserve">
<path d="M22.4,327.5h2.1C28.1,337.9,34,343,40.4,343c2.7,0,5-0.8,6.9-2.5c1.9-1.7,2.9-3.9,2.9-6.5c0-2.5-0.6-4.4-1.9-5.7
	c-1.3-1.4-2.8-2.3-4.5-2.9c-1.8-0.6-4.1-1.1-7-1.6c-2.9-0.5-4.9-0.9-6.1-1.3c-5.6-2-8.8-6.3-8.8-11.9c0-7,5-13.2,12.7-13.2
	c1.4,0,3.1,0.2,5.1,0.6c2,0.4,3.5,0.6,4.5,0.6c1.2,0,2.3-0.3,3.3-0.8h2.5l1.4,13.3H49c-2.1-4-4.3-7-6.6-9.1c-2.3-2.1-5-3.1-8.1-3.1
	c-4.6-0.1-8.8,3.7-8.7,8.3c0,4.3,3,6.4,8.7,7.6c5.8,1.2,10.4,1.8,13.1,3.1c4.9,2.4,7.7,6.9,7.7,12.3c0.2,7.7-6.3,14.8-14.7,14.7
	c-1.6,0-2.7-0.1-3.5-0.4c-0.8-0.2-2.2-0.7-4.1-1.4c-1.9-0.7-3.4-1-4.4-1c-1.7,0-3.1,0.6-4.1,2h-1.8L22.4,327.5 M107.7,297.6v14.4h-2
	c-4.1-8.6-9.3-12.8-15.8-12.8c-4.5,0-8.2,2.1-10.8,5.8c-2.6,3.7-4.1,9.3-4.1,15.4c-0.1,12.7,7.1,22,16.8,21.9c6,0,11.4-3,15.9-9
	l1.9,1.1c-4.9,7-11.6,10.6-20.5,10.6c-13.8,0.2-23.7-10.7-23.6-23.6c0-6.9,2.6-13,6.9-17.3c4.4-4.3,10.2-6.7,16.6-6.7
	c1.2,0,2.3,0.1,3.4,0.3c1.1,0.2,2.3,0.4,3.7,0.8l2.9,0.8c0.5,0.1,1.1,0.2,1.8,0.2c1.7,0,3.1-0.6,4.2-1.8L107.7,297.6 M143.8,343
	c7.8,0,14.2-6.7,14.2-19.7c0-7.1-1.7-13.3-4.7-17.5c-2.9-4.2-7-6.6-11.6-6.6c-8.1,0-13.8,7.3-13.8,18.3
	C127.7,332.5,134.6,343.2,143.8,343L143.8,343z M121.1,310.3c1.4-3.1,3.6-6,6.2-8.1c4.2-3.5,9.3-4.9,15.8-4.9
	c14.6-0.1,24.1,10.9,24,23.5c0.2,13.6-10.8,24.1-24.9,24c-6.6,0-12.6-2.5-16.7-6.7c-4.1-4.3-6.5-10.3-6.5-17.2
	C118.9,317,119.6,313.5,121.1,310.3L121.1,310.3z M178.1,298.2h41l2.3,10.7h-2.3c-1.6-2.8-3.4-4.8-5.2-6.1c-1.8-1.3-3.5-2.1-5.1-2.3
	c-1.6-0.3-3.7-0.4-6.3-0.5v36.9c0,4.3,1.7,5.1,7.2,5.3v1.8h-22.6v-1.8c5.5-0.2,7.1-0.6,7.3-5.7V300c-4.6,0-8.1,1-10.4,2.5
	c-1.2,0.7-2.1,1.5-2.9,2.4c-0.7,0.8-1.9,2.2-3.4,4h-2L178.1,298.2 M271.6,297.6v14.4h-2c-4.1-8.6-9.3-12.8-15.8-12.8
	c-4.5,0-8.2,2.1-10.8,5.8c-2.6,3.7-4.1,9.3-4.1,15.4c-0.1,12.7,7.1,22,16.8,21.9c6,0,11.4-3,15.9-9l1.9,1.1
	c-4.9,7-11.6,10.6-20.5,10.6c-13.8,0.2-23.7-10.7-23.6-23.6c0-6.9,2.6-13,6.9-17.3c4.4-4.3,10.2-6.7,16.6-6.7c1.2,0,2.3,0.1,3.3,0.3
	c1.1,0.2,2.3,0.4,3.7,0.8l2.9,0.8c0.5,0.1,1.1,0.2,1.8,0.2c1.7,0,3.1-0.6,4.2-1.8L271.6,297.6 M314.3,343.9v-1.8
	c2.2-0.1,3.7-0.3,4.5-0.6c0.9-0.3,1.5-0.9,1.7-1.7c0.3-0.8,0.4-2.2,0.4-4.1v-14.1h-22.9V335c0,3.2,0.2,4.6,1,5.6
	c0.9,0.9,2.3,1.3,5.7,1.6v1.8h-21.5v-1.8c3.1-0.1,4.6-0.3,5.5-1.2c1-0.9,1.3-2.4,1.3-5.4v-30.4c0-2.1-0.5-3.4-1.5-4.1
	c-0.9-0.6-2.7-1-5.4-1.1v-1.8h21.5v1.8c-2.1,0-3.6,0.3-4.6,0.7c-0.9,0.4-1.5,1.1-1.7,2.1c-0.2,0.9-0.4,2.5-0.4,4.6v11.9H321v-13.6
	c0-1.6-0.2-2.8-0.5-3.5c-0.4-0.7-1-1.2-1.9-1.5c-0.9-0.3-2.3-0.5-4.3-0.6v-1.8h21.5v1.8c-2.2,0.1-3.7,0.3-4.6,0.6
	c-0.9,0.4-1.5,1-1.7,1.9c-0.3,0.9-0.4,2.5-0.4,4.8v28.3c0,1.8,0.1,3.1,0.4,4c0.5,1.8,2.2,2.7,6.4,2.6v1.8L314.3,343.9 M375.1,308.5
	c0-0.7-0.3-1.7-1-2.8c-0.7-1.1-1.5-2-2.5-2.9c-1-0.8-1.9-1.2-2.8-1.2c-1,0-1.9,0.4-2.7,1.2c-0.8,0.8-1.2,1.6-1.2,2.4
	c0,1.2,0.6,2.3,2,4c1.4,1.6,2.6,2.7,4.2,4.3C373.8,311.6,375.1,309.9,375.1,308.5L375.1,308.5z M376.2,332.4c-1.1-1.6-2-3-2.9-4.1
	c-0.8-1.1-1.9-2.5-3.1-4.1c-1.3-1.6-2.5-3-3.8-4.4c-2.1,1.8-3.6,3.4-4.6,4.9c-0.9,1.5-1.4,3-1.4,4.7c-0.2,5.1,4.9,10.6,10,10.5
	c3,0,5.6-1.4,8.1-4.1C378.5,335.9,376.2,332.4,376.2,332.4z M353.6,333.7c0.1-4.3,2-7,6-10.8c1.8-1.8,3.7-3.3,5.6-4.5
	c-3.5-3.8-5.3-6.9-5.3-9.1c-0.2-4.1,8.1-12.3,13.3-12c4.6,0,7.8,4.7,7.8,7.8c0,1.1-0.4,2.2-1.1,3.3c-0.7,1.1-1.6,2-2.5,2.8
	c-0.9,0.8-2.5,2-4.8,3.7c5.1,5.7,8.5,10.6,11.1,14.6c3.2-4.1,4.8-7.5,4.8-9.4c0-2.1-1.9-3.8-4.8-3.8v-1.8h15.5v1.8
	c-1.6,0.2-3.1,0.9-4.5,2.2c-1.4,1.2-2.8,2.8-4.2,4.7c-1.4,1.9-3.2,4.6-5.6,8.1l2,3c1.4,2.1,2.4,3.5,3.2,4.2c0.8,0.7,1.6,1.1,2.6,1.1
	c1.7,0,3.2-1.3,4.6-3.9l1.6,0.7c-2.4,5.7-5.7,8.4-9.7,8.4c-3.4,0-6.8-2.8-9.4-7.3c-2.3,2.3-4.7,4.1-7.4,5.4
	c-2.6,1.3-5.1,1.9-7.3,1.9C358.4,345,353.5,339.3,353.6,333.7L353.6,333.7z M417.8,327.5h2.1c3.6,10.4,9.5,15.5,15.9,15.5
	c2.7,0,5-0.8,6.9-2.5c1.9-1.7,2.9-3.9,2.9-6.5c0-2.5-0.6-4.4-1.9-5.7c-1.3-1.4-2.8-2.3-4.5-2.9c-1.8-0.6-4.1-1.1-7-1.6
	c-2.9-0.5-4.9-0.9-6.1-1.3c-5.6-1.9-8.8-6.3-8.8-11.9c0-7,5-13.2,12.7-13.2c1.4,0,3.1,0.2,5.1,0.6c2,0.4,3.5,0.6,4.4,0.6
	c1.2,0,2.3-0.3,3.3-0.8h2.4l1.4,13.3h-2.3c-2.1-4-4.3-7-6.6-9.1c-2.3-2.1-5-3.1-8.1-3.1c-4.6-0.1-8.8,3.7-8.7,8.3
	c0,4.3,3,6.4,8.7,7.6c5.8,1.2,10.4,1.8,13.1,3.1c4.9,2.4,7.7,6.9,7.7,12.3c0.2,7.7-6.4,14.8-14.7,14.7c-1.6,0-2.7-0.1-3.5-0.4
	c-0.8-0.2-2.2-0.7-4.1-1.4c-1.9-0.7-3.4-1-4.4-1c-1.7,0-3.1,0.7-4.1,2h-1.8L417.8,327.5 M486.5,343c7.8,0,14.2-6.7,14.2-19.7
	c0-7.1-1.7-13.3-4.7-17.5c-2.9-4.2-7-6.6-11.6-6.6c-8.1,0-13.8,7.3-13.8,18.3C470.4,332.5,477.3,343.2,486.5,343L486.5,343z
	 M463.7,310.3c1.4-3.1,3.6-6,6.2-8.1c4.2-3.5,9.3-4.9,15.8-4.9c14.6-0.1,24.1,10.9,24,23.5c0.2,13.6-10.8,24.1-25,24
	c-6.6,0-12.6-2.5-16.7-6.7c-4.1-4.3-6.5-10.3-6.5-17.2C461.6,317,462.3,313.5,463.7,310.3L463.7,310.3z M533.5,335.5
	c0,1.9,0.1,3.2,0.4,4.1c0.5,1.7,2.2,2.5,6.5,2.5c4.7,0,8.2-0.8,11.6-3.3c5.9-4.3,7.7-9.4,7.8-17.3c0-7.7-2.3-13.5-6.7-17.3
	c-3.6-3.1-7.7-4.2-13.6-4.2c-2,0-3.4,0.3-4.3,0.9c-0.8,0.6-1.3,1.4-1.5,2.6c-0.2,1.1-0.2,3.1-0.2,5.9V335.5L533.5,335.5z
	 M518.8,343.9v-1.8c5.4-0.2,6.4-0.9,6.5-5.3v-32.6c0-1.6-0.5-2.7-1.5-3.2c-1-0.5-2.7-0.9-5-1.1v-1.8h26.6
	c13.9-0.1,23.7,10,23.6,23.2c0,6.5-2.4,12.1-6.8,16.2c-4.4,4.1-10.7,6.4-17.9,6.4L518.8,343.9L518.8,343.9z M588.7,324.6h13.7
	l-6.9-17.5L588.7,324.6L588.7,324.6z M603.1,326.7h-15.2l-2.1,5.5c-0.5,1.4-0.8,2.8-0.8,4.4c0,1.5,0.4,2.7,1.3,3.8
	c0.9,1.1,2.2,1.7,3.8,1.8v1.8h-14.9v-1.8c3.3-0.5,6-3.4,8.1-8.7l11.2-28.7c-0.6-1-1.2-1.7-1.8-2c-0.6-0.4-1.6-0.6-2.8-0.7v-1.6
	l7.7-2.7h3l14.9,38.3c0.9,2.2,1.7,3.6,2.6,4.4c0.9,0.7,2.2,1.3,3.9,1.7v1.8h-19.1v-1.8c3.3-0.4,5-0.8,5-2.8c0-0.9-0.3-2-0.9-3.4
	L603.1,326.7L603.1,326.7z"/>
</svg>
