<svg height="512pt" viewBox="0 -27 512.00001 512" width="512pt" xmlns="http://www.w3.org/2000/svg"><path d="m256 371.34375-138.949219 15.667969v21.925781c0 10.097656 8.1875 18.28125 18.285157 18.28125h241.328124c10.097657 0 18.285157-8.183594 18.285157-18.28125v-21.925781zm0 0" fill="#96ccec"/><path d="m440.011719 365.894531-40.78125 12.113281-16.394531 49.742188 72.800781 24 16.40625-49.742188zm0 0" fill="#75b8db"/><path d="m71.988281 365.894531 40.78125 12.113281 16.394531 49.742188-72.800781 24-16.40625-49.742188zm0 0" fill="#75b8db"/><path d="m497.828125 323.769531-25.785156 78.238281-72.8125-24 27.839843-84.441406c3.6875-11.179687 2.484376-23.394531-3.320312-33.636718l-77.5625-136.996094 66.699219-37.761719 74.351562 131.300781c18.5 32.675782 22.34375 71.636719 10.589844 107.296875zm0 0" fill="#96ccec"/><path d="m14.171875 323.769531 25.785156 78.238281 72.8125-24-27.839843-84.441406c-3.691407-11.179687-2.484376-23.394531 3.320312-33.636718l77.5625-136.996094-66.699219-37.761719-74.351562 131.300781c-18.5 32.675782-22.34375 71.636719-10.589844 107.296875zm0 0" fill="#96ccec"/><path d="m394.949219 211.21875v175.792969h-277.898438v-175.792969c22.546875-76.304688-17.9375-126.046875-17.9375-126.046875l56.328125-43.96875h201.117188l56.328125 43.96875c0-.003906-40.484375 49.742187-17.9375 126.046875zm0 0" fill="#75b8db"/><path d="m199.40625 124.28125c7.28125 5.296875 15.859375 8.09375 24.808594 8.09375 12.566406 0 23.980468-5.480469 31.785156-14.359375 7.804688 8.875 19.214844 14.359375 31.78125 14.359375h.003906c8.949219 0 17.527344-2.796875 24.808594-8.09375l50.851562-36.980469c9.183594-6.679687 15.773438-15.601562 19.53125-25.476562l-26.417968-20.625h-201.117188l-26.417968 20.625c3.757812 9.875 10.347656 18.796875 19.53125 25.476562zm0 0" fill="#66a9cc"/><path d="m352.859375 208.074219c0 17.945312-14.546875 32.496093-32.496094 32.496093-17.945312 0-32.496093-14.550781-32.496093-32.496093v-44.484375l32.496093 10.253906 32.496094-10.253906zm0 0" fill="#96ccec"/><path d="m287.867188 151.605469v11.984375c0 17.949218 14.550781 32.496094 32.496093 32.496094 17.945313 0 32.496094-14.546876 32.496094-32.496094v-11.984375zm0 0" fill="#b4dbf3"/><path d="m159.140625 208.074219c0 17.945312 14.546875 32.496093 32.496094 32.496093 17.945312 0 32.496093-14.550781 32.496093-32.496093v-44.484375l-32.496093 10.253906-32.496094-10.253906zm0 0" fill="#96ccec"/><path d="m224.132812 151.605469v11.984375c0 17.949218-14.550781 32.496094-32.496093 32.496094-17.945313 0-32.496094-14.546876-32.496094-32.496094v-11.984375zm0 0" fill="#b4dbf3"/><path d="m171.511719 7.492188h168.976562l-34.203125 47.441406-50.285156 7.070312-50.285156-7.070312zm0 0" fill="#75b8db"/><path d="m352.941406 28.589844-12.453125-21.097656-84.488281 54.511718s15.910156 8.566406 19.636719 30.117188c1.550781 8.980468 11.9375 13.257812 19.3125 7.898437l50.851562-36.984375c10.898438-7.925781 13.988281-22.835937 7.140625-34.445312zm0 0" fill="#96ccec"/><path d="m159.058594 28.589844 12.453125-21.097656 84.488281 54.511718s-15.910156 8.566406-19.636719 30.117188c-1.550781 8.980468-11.9375 13.257812-19.3125 7.898437l-50.851562-36.984375c-10.898438-7.925781-13.988281-22.835937-7.140625-34.445312zm0 0" fill="#96ccec"/><path d="m225.933594 73.890625c0 3.925781-3.183594 7.113281-7.109375 7.113281-3.929688 0-7.113281-3.1875-7.113281-7.113281s3.183593-7.113281 7.113281-7.113281c3.925781 0 7.109375 3.1875 7.109375 7.113281zm0 0"/><path d="m300.289062 73.890625c0 3.925781-3.183593 7.113281-7.113281 7.113281-3.925781 0-7.109375-3.1875-7.109375-7.113281s3.183594-7.113281 7.109375-7.113281c3.929688 0 7.113281 3.1875 7.113281 7.113281zm0 0"/><path d="m326.519531 173.851562c0 3.398438-2.753906 6.15625-6.15625 6.15625-3.398437 0-6.15625-2.757812-6.15625-6.15625 0-3.402343 2.757813-6.160156 6.15625-6.160156 3.402344 0 6.15625 2.757813 6.15625 6.160156zm0 0"/><path d="m320.363281 350.085938c-4.140625 0-7.5 3.359374-7.5 7.5v14c0 4.144531 3.359375 7.503906 7.5 7.503906 4.144531 0 7.5-3.359375 7.5-7.503906v-14c0-4.140626-3.355469-7.5-7.5-7.5zm0 0"/><path d="m320.363281 311.082031c-4.140625 0-7.5 3.359375-7.5 7.5v14c0 4.144531 3.359375 7.503907 7.5 7.503907 4.144531 0 7.5-3.359376 7.5-7.503907v-14c0-4.140625-3.355469-7.5-7.5-7.5zm0 0"/><path d="m320.363281 272.078125c-4.140625 0-7.5 3.359375-7.5 7.5v14.003906c0 4.140625 3.359375 7.5 7.5 7.5 4.144531 0 7.5-3.359375 7.5-7.5v-14.003906c0-4.140625-3.355469-7.5-7.5-7.5zm0 0"/><path d="m197.792969 173.851562c0 3.398438-2.757813 6.15625-6.15625 6.15625-3.402344 0-6.15625-2.757812-6.15625-6.15625 0-3.402343 2.753906-6.160156 6.15625-6.160156 3.398437 0 6.15625 2.757813 6.15625 6.160156zm0 0"/><path d="m191.636719 272.078125c-4.144531 0-7.5 3.359375-7.5 7.5v14.003906c0 4.140625 3.355469 7.5 7.5 7.5 4.140625 0 7.5-3.359375 7.5-7.5v-14.003906c0-4.140625-3.359375-7.5-7.5-7.5zm0 0"/><path d="m191.636719 311.082031c-4.144531 0-7.5 3.359375-7.5 7.5v14c0 4.144531 3.355469 7.503907 7.5 7.503907 4.140625 0 7.5-3.359376 7.5-7.503907v-14c0-4.140625-3.359375-7.5-7.5-7.5zm0 0"/><path d="m191.636719 350.085938c-4.144531 0-7.5 3.359374-7.5 7.5v14c0 4.144531 3.355469 7.503906 7.5 7.503906 4.140625 0 7.5-3.359375 7.5-7.503906v-14c0-4.140626-3.359375-7.5-7.5-7.5zm0 0"/><path d="m447.125 422.410156c0 3.929688-3.183594 7.113282-7.113281 7.113282-3.925781 0-7.109375-3.183594-7.109375-7.113282 0-3.925781 3.183594-7.109375 7.109375-7.109375 3.929687 0 7.113281 3.183594 7.113281 7.109375zm0 0"/><path d="m79.101562 422.410156c0 3.929688-3.1875 7.113282-7.113281 7.113282s-7.113281-3.183594-7.113281-7.113282c0-3.925781 3.1875-7.109375 7.113281-7.109375s7.113281 3.183594 7.113281 7.109375zm0 0"/><path d="m419.410156 81.480469c-.484375-.855469-1.144531-1.605469-1.910156-2.214844l-53.714844-41.933594c-.597656-4.304687-2.039062-8.566406-4.386718-12.546875l-12.449219-21.097656c-1.335938-2.265625-3.832031-3.6875-6.460938-3.6875 0 0-169.027343.0078125-169.054687.0078125-2.503906.046875-5.226563 1.3710935-6.382813 3.6796875l-12.453125 21.097656c-2.347656 3.980469-3.785156 8.242188-4.382812 12.546875 0 0-53.6875 41.910157-53.714844 41.933594-.765625.59375-1.433594 1.371094-1.914062 2.214844l-34.753907 61.375c-2.039062 3.601562-.773437 8.179687 2.832031 10.222656 3.605469 2.039063 8.183594.773437 10.222657-2.832031l28.679687-50.644532c.371094.65625.75 1.347657 1.136719 2.066407.003906.011719.011719.019531.015625.03125 16.921875 31.113281 19.417969 68.390625 10.542969 102.335937-.003907.019532-.011719.042969-.015625.0625l-29.523438 52.140625c-6.832031 12.058594-8.261718 26.519531-3.917968 39.683594l25.492187 77.316406-58.5625 19.304688-23.441406-71.117188c-11.066407-33.578125-7.425781-70.484375 9.992187-101.25l24.269532-42.855469c2.039062-3.605468.773437-8.179687-2.832032-10.222656-3.605468-2.039062-8.183594-.773437-10.222656 2.832032l-24.265625 42.851562c-19.5 34.441406-23.574219 75.75-11.1875 113.339844 0 0 42.175781 127.929687 42.191406 127.984375 1.277344 3.867187 5.609375 6.046875 9.472657 4.773437l72.800781-23.996094c.289062-.097656.566406-.210937.832031-.335937.992188.113281 1.988281.179687 2.992188.179687h158.597656c4.140625 0 7.5-3.359374 7.5-7.5 0-4.140624-3.359375-7.5-7.5-7.5 0 0-159.222656-.015624-159.535156-.042968l-8.292969-25.164063h259.789062l-8.292969 25.164063c-.3125.027344-53.667968.042968-53.667968.042968-4.140625 0-7.5 3.359376-7.5 7.5 0 4.140626 3.359375 7.5 7.5 7.5h52.730468c1.003907 0 2-.066406 2.992188-.179687.269531.125.542969.238281.832031.335937 0 0 72.796875 23.996094 72.800781 23.996094 3.828126 1.261719 8.179688-.863281 9.472657-4.773437l42.191406-127.984375c12.386719-37.589844 8.3125-78.898438-11.1875-113.339844 0 0-74.351563-131.300781-74.355469-131.300781zm-72.929687-49.070313c4.207031 7.128906 3.242187 20.398438-5.089844 24.5625 0 0-50.832031 36.972656-50.855469 36.984375-2.820312 2.054688-6.917968.304688-7.507812-3.109375-1.496094-8.625-5.027344-16.875-10.429688-23.777344-1.285156-1.636718-2.578125-3.097656-3.828125-4.371093l69.226563-44.664063s8.480468 14.367188 8.484375 14.375zm-180.960938 0 8.484375-14.375 69.226563 44.660156c-1.257813 1.28125-2.554688 2.746094-3.84375 4.394532-5.417969 6.839844-8.925781 15.179687-10.414063 23.757812-.398437 2.316406-2.199218 3.667969-3.992187 3.96875-1.101563.183594-2.6875-.027344-3.515625-.855468 0 0-50.789063-36.9375-50.859375-36.988282-7.628907-5.609375-9.902344-16.402344-5.085938-24.5625zm-73.46875 258.8125c-3.019531-9.152344-2.027343-19.207031 2.726563-27.589844l14.773437-26.09375v106.757813zm-30.914062 151.0625-11.707031-35.496094 58.5625-19.300781 11.699218 35.496094zm187.363281-62.765625h-123.949219v-167.21875c18.457031-63.824219-4.847656-109.53125-15.195312-125.601562l41.042969-32.042969c1.992187 4.851562 5.152343 9.273438 9.375 12.855469.652343.554687 52.851562 38.566406 52.867187 38.578125 11.703125 8.511718 28.667969 1.464844 31.113281-12.683594.796875-4.613281 2.378906-9.09375 4.746094-13.136719zm7.5-326.4375-59.027344-38.082031h118.054688zm131.449219 326.4375h-123.949219v-299.25c2.539062 4.316407 3.871094 9.15625 4.9375 14.015625 2.996094 13.664063 19.574219 20.058594 30.921875 11.804688l50.851563-36.984375c5.03125-3.65625 9.023437-8.695313 11.386718-14.449219l41.046875 32.042969c-10.347656 16.070312-33.652343 61.777343-15.195312 125.601562zm63.414062 62.765625-58.554687-19.300781 11.699218-35.496094 58.5625 19.300781zm-48.414062-97.984375v-106.761719l14.773437 26.097657c4.753906 8.378906 5.746094 18.4375 2.726563 27.589843zm88.253906-22.875-23.4375 71.113281-58.5625-19.300781 25.492187-77.316406c4.34375-13.164063 2.914063-27.628906-3.917968-39.679687l-29.523438-52.144532c-.007812-.023437-.011718-.046875-.019531-.066406-9.0625-34.746094-6.113281-72.867188 11.699219-104.429688l68.277344 120.574219c17.417968 30.765625 21.0625 67.671875 9.992187 101.25zm0 0"/><path d="m352.859375 144.109375h-64.992187c-4.140626 0-7.5 3.359375-7.5 7.5v56.472656c0 19.488281 14.015624 35.757813 32.496093 39.277344v7.21875c0 4.140625 3.359375 7.5 7.5 7.5 4.144531 0 7.5-3.359375 7.5-7.5v-7.21875c18.480469-3.519531 32.496094-19.789063 32.496094-39.277344v-56.472656c0-4.140625-3.359375-7.5-7.5-7.5zm-7.5 63.972656c0 13.78125-11.214844 24.992188-24.996094 24.992188s-24.996093-11.210938-24.996093-24.992188v-13.28125c2.277343 1.824219 4.75 3.398438 7.367187 4.6875 5.449219 2.683594 11.550781 4.105469 17.628906 4.105469 4.625 0 9.277344-.808594 13.625-2.390625 4.101563-1.492187 7.964844-3.667969 11.371094-6.402344zm0-44.484375c0 13.78125-11.214844 24.996094-24.996094 24.996094s-24.996093-11.214844-24.996093-24.996094v-4.488281h49.992187zm0 0"/><path d="m224.132812 144.109375h-64.992187c-4.140625 0-7.5 3.359375-7.5 7.5v56.472656c0 19.488281 14.015625 35.757813 32.496094 39.277344v7.21875c0 4.140625 3.359375 7.5 7.5 7.5 4.144531 0 7.5-3.359375 7.5-7.5v-7.21875c18.480469-3.519531 32.496093-19.789063 32.496093-39.277344v-56.472656c0-4.140625-3.359374-7.5-7.5-7.5zm-7.5 63.972656c0 13.78125-11.214843 24.992188-24.996093 24.992188s-24.996094-11.210938-24.996094-24.992188v-13.28125c6.890625 5.535157 15.628906 8.667969 24.460937 8.789063.175782.003906.355469.003906.535157.003906 9.023437 0 17.957031-3.140625 24.996093-8.792969zm0-44.484375c0 13.78125-11.214843 24.996094-24.996093 24.996094s-24.996094-11.214844-24.996094-24.996094v-4.488281h49.988281v4.488281zm0 0"/></svg>