<?xml version="1.0" encoding="iso-8859-1"?>
<!-- Generator: Adobe Illustrator 19.0.0, SVG Export Plug-In . SVG Version: 6.00 Build 0)  -->
<svg version="1.1" id="Capa_1" xmlns="http://www.w3.org/2000/svg" xmlns:xlink="http://www.w3.org/1999/xlink" x="0px" y="0px"
	 viewBox="0 0 480 480" style="enable-background:new 0 0 480 480;" xml:space="preserve">
<path style="fill:#00B6BD;" d="M456.88,74L354.4,40.8c-1.597-0.544-3.273-0.814-4.96-0.8H344l-72,64l-8-8l-8,8l8,304l-24,24l-24-24
	l8-304l-8-8l-8,8l-72-64h-5.44c-1.687-0.014-3.363,0.256-4.96,0.8L23.12,74C13.99,77.603,7.992,86.424,8,96.24V224h80v248h304V224
	h80V96.24C472.008,86.424,466.011,77.603,456.88,74z"/>
<path style="fill:#009698;" d="M320,8H160l80,64L320,8z"/>
<g>
	<path style="fill:#00D7DF;" d="M264,96l8,8l72-64L320,8l-80,64L264,96z"/>
	<path style="fill:#00D7DF;" d="M216,96l24-24L160,8l-24,32l72,64L216,96z"/>
</g>
<g>
	<path style="fill:#FF7956;" d="M224,104l-8,304l24,24l24-24l-8-304h-16H224z"/>
	<path style="fill:#FF7956;" d="M216,96l8,8h16h16l8-8l-24-24L216,96z"/>
</g>
<path style="fill:#3E3D42;" d="M459.352,66.4L357.048,33.256c-2.447-0.847-5.019-1.271-7.608-1.256H348L326.4,3.2
	c-1.299-1.732-3.244-2.863-5.392-3.136c-0.337,0-0.674,0.024-1.008,0.072V0H160v0.136c-0.334-0.048-0.671-0.072-1.008-0.072
	c-2.148,0.273-4.093,1.404-5.392,3.136L132,32h-1.44c-2.524-0.02-5.033,0.383-7.424,1.192L20.176,66.56
	C7.964,71.334-0.053,83.128,0,96.24V224c0,4.418,3.582,8,8,8h72v240c0,4.418,3.582,8,8,8h304c4.418,0,8-3.582,8-8V232h72
	c4.418,0,8-3.582,8-8V96.24C480.007,82.963,471.78,71.074,459.352,66.4L459.352,66.4z M333.176,38.912L272.32,93.008l-2.664-2.664
	l-17.68-17.68L318.552,19.4L333.176,38.912z M255.912,404.8L240,420.688L224.088,404.8l7.704-292.8h16.416L255.912,404.8z
	 M240,61.752L182.808,16h114.4L240,61.752z M240,83.352L252.688,96h-25.376L240,83.352z M161.448,19.4L228,72.664l-17.68,17.68
	l-2.664,2.664l-60.832-54.096L161.448,19.4z M464,216h-64v-48h-16v296H96V168H80v48H16V96.24c-0.067-6.376,3.726-12.16,9.6-14.64
	l102.648-33.256c0.747-0.239,1.528-0.355,2.312-0.344h2.4l69.728,61.984c3.167,2.81,7.975,2.666,10.968-0.328l2.248-2.248
	L208,407.792c-0.056,2.193,0.792,4.313,2.344,5.864l24,24c3.124,3.123,8.188,3.123,11.312,0l24-24
	c1.552-1.551,2.4-3.671,2.344-5.864l-7.904-300.384l2.248,2.248c2.993,2.994,7.801,3.138,10.968,0.328L347.04,48h2.4
	c0.847-0.008,1.688,0.13,2.488,0.408L453.944,81.44c6.087,2.383,10.083,8.263,10.056,14.8L464,216z"/>
<g>
</g>
<g>
</g>
<g>
</g>
<g>
</g>
<g>
</g>
<g>
</g>
<g>
</g>
<g>
</g>
<g>
</g>
<g>
</g>
<g>
</g>
<g>
</g>
<g>
</g>
<g>
</g>
<g>
</g>
</svg>
