<svg id="Capa_1" enable-background="new 0 0 512 512" height="512" viewBox="0 0 512 512" width="512" xmlns="http://www.w3.org/2000/svg"><g><g><g><g><path d="m315.5 88.037h-119c-5.523 0-10-4.477-10-10v-40.105c0-5.523 4.477-10 10-10h119c5.523 0 10 4.477 10 10v40.105c0 5.523-4.477 10-10 10z" fill="#1faaee"/><path d="m325.5 37.932v40.1c0 5.53-4.48 10-10 10h-33.5c5.52 0 10-4.47 10-10v-40.1c0-5.52-4.48-10-10-10h33.5c5.52 0 10 4.48 10 10z" fill="#1891cd"/></g><g><g><path d="m486.684 484.068h-35.973c-5.593 0-10.127-4.534-10.127-10.127v-33.979h56.226v33.979c.001 5.593-4.533 10.127-10.126 10.127z" fill="#f98824"/><path d="m443.478 444.351h50.896c5.593 0 10.127-4.534 10.127-10.127v-210.4c0-10.516-4.081-20.622-11.385-28.188l-110.398-114.379v112.027l50.633 50.633v190.308c0 5.592 4.534 10.126 10.127 10.126z" fill="#fb6a3b"/><path d="m504.5 223.82v210.4c0 5.6-4.53 10.13-10.13 10.13h-35.8c5.59 0 10.13-4.53 10.13-10.13v-210.4c0-10.51-4.08-20.62-11.39-28.18l-74.59-77.29v-37.09l110.4 114.38c7.3 7.56 11.38 17.67 11.38 28.18z" fill="#fb5532"/></g><g><path d="m25.316 484.068h35.973c5.593 0 10.127-4.534 10.127-10.127v-33.979h-56.227v33.979c0 5.593 4.534 10.127 10.127 10.127z" fill="#f98824"/><path d="m68.522 444.351h-50.895c-5.593 0-10.127-4.534-10.127-10.127v-210.4c0-10.516 4.081-20.622 11.385-28.188l110.397-114.379v112.027l-50.633 50.633v190.308c0 5.592-4.534 10.126-10.127 10.126z" fill="#fb6a3b"/><path d="m129.28 158.95v34.33l-50.63 50.64v190.3c0 5.6-4.53 10.13-10.13 10.13h-34.33c5.59 0 10.13-4.53 10.13-10.13v-190.3z" fill="#fb5532"/></g></g><g><g><path d="m143.514 484.068h224.972c5.593 0 10.127-4.534 10.127-10.127v-33.979h-245.226v33.979c0 5.593 4.534 10.127 10.127 10.127z" fill="#1faaee"/><path d="m378.61 439.962v33.98c0 5.59-4.53 10.13-10.12 10.13h-36.01c5.6 0 10.13-4.54 10.13-10.13v-33.98z" fill="#1891cd"/></g><path d="m384.613 442.068h-257.226c-5.523 0-10-4.477-10-10v-325.169c0-18.537 15.027-33.564 33.564-33.564h210.097c18.537 0 33.564 15.027 33.564 33.564v325.169c.001 5.523-4.476 10-9.999 10z" fill="#fcb44d"/><path d="m394.61 106.902v325.17c0 5.52-4.47 10-10 10h-40.61c5.52 0 10-4.48 10-10v-325.17c0-18.54-15.03-33.57-33.56-33.57h40.61c18.54 0 33.56 15.03 33.56 33.57z" fill="#fca62f"/><path d="m117.387 306.932v125.136c0 5.523 4.477 10 10 10h257.226c5.523 0 10-4.477 10-10v-125.136z" fill="#24d1f8"/><path d="m394.61 306.932v125.14c0 5.52-4.47 10-10 10h-40.61c5.52 0 10-4.48 10-10v-125.14z" fill="#21c1f8"/></g><g><g><path d="m145.306 172.335-27.616 23.266 27.787 23.062 27.616-23.266z" fill="#f2fbff"/><path d="m200.709 172.131-27.616 23.266 27.787 23.062 27.616-23.266z" fill="#24d1f8"/><path d="m256.112 171.927-27.616 23.266 27.787 23.062 27.616-23.266z" fill="#f2fbff"/><path d="m311.516 171.723-27.617 23.266 27.787 23.062 27.616-23.266z" fill="#24d1f8"/><path d="m366.919 171.519-27.617 23.266 27.787 23.062 27.617-23.266z" fill="#f2fbff"/></g></g></g></g><g><path d="m498.512 190.427-105.656-109.467c-7.537-9.224-18.994-15.126-31.807-15.126h-28.049v-27.902c0-9.649-7.851-17.5-17.5-17.5h-119c-9.649 0-17.5 7.851-17.5 17.5v27.902h-28.049c-12.814 0-24.272 5.902-31.809 15.128l-105.654 109.465c-8.698 9.011-13.488 20.872-13.488 33.397v210.4c0 6.035 3.052 11.367 7.689 14.546v25.171c0 9.719 7.907 17.626 17.627 17.626h35.973c9.719 0 17.626-7.907 17.626-17.626v-25.512c4.376-3.21 7.234-8.374 7.234-14.205v-187.201l23.737-23.737v208.782c0 9.143 7.052 16.66 16.001 17.424v24.449c0 9.719 7.907 17.626 17.626 17.626h150.991c4.143 0 7.5-3.358 7.5-7.5s-3.357-7.5-7.5-7.5h-150.99c-1.448 0-2.626-1.178-2.626-2.626v-24.374h9.612v7.365c0 4.142 3.357 7.5 7.5 7.5s7.5-3.358 7.5-7.5v-7.365h17.667v7.365c0 4.142 3.357 7.5 7.5 7.5s7.5-3.358 7.5-7.5v-7.365h17.666v7.365c0 4.142 3.357 7.5 7.5 7.5s7.5-3.358 7.5-7.5v-7.365h17.667v7.365c0 4.142 3.357 7.5 7.5 7.5s7.5-3.358 7.5-7.5v-7.365h17.667v7.365c0 4.142 3.357 7.5 7.5 7.5s7.5-3.358 7.5-7.5v-7.365h17.666v7.365c0 4.142 3.357 7.5 7.5 7.5s7.5-3.358 7.5-7.5v-7.365h17.667v7.365c0 4.142 3.357 7.5 7.5 7.5s7.5-3.358 7.5-7.5v-7.365h9.612v24.374c0 1.448-1.178 2.626-2.626 2.626h-40.991c-4.143 0-7.5 3.358-7.5 7.5s3.357 7.5 7.5 7.5h40.991c9.719 0 17.626-7.907 17.626-17.626v-24.449c8.949-.764 16.001-8.281 16.001-17.424v-208.783l23.737 23.737v82.817c0 4.142 3.357 7.5 7.5 7.5s7.5-3.358 7.5-7.5v-85.924c0-1.989-.79-3.897-2.196-5.303l-36.541-36.542v-89.92l85.605 88.693c5.985 6.2 9.281 14.361 9.281 22.979v210.4c0 1.448-1.179 2.626-2.627 2.626h-50.896c-1.448 0-2.627-1.178-2.627-2.626v-71.394c0-4.142-3.357-7.5-7.5-7.5s-7.5 3.358-7.5 7.5v71.394c0 5.831 2.858 10.995 7.234 14.205v25.512c0 9.719 7.907 17.626 17.626 17.626h35.973c9.72 0 17.627-7.907 17.627-17.626v-25.169c4.638-3.179 7.689-8.511 7.689-14.546v-210.4c.002-12.525-4.788-24.386-13.486-33.397zm-304.512-152.495c0-1.378 1.121-2.5 2.5-2.5h119c1.379 0 2.5 1.122 2.5 2.5v27.902h-18.5v-7.85c0-4.142-3.357-7.5-7.5-7.5s-7.5 3.358-7.5 7.5v7.85h-21v-7.85c0-4.142-3.357-7.5-7.5-7.5s-7.5 3.358-7.5 7.5v7.85h-21v-7.85c0-4.142-3.357-7.5-7.5-7.5s-7.5 3.358-7.5 7.5v7.85h-18.5zm-132.711 438.636h-35.973c-1.448 0-2.627-1.178-2.627-2.626v-22.09h13.113v7.165c0 4.142 3.357 7.5 7.5 7.5s7.5-3.358 7.5-7.5v-7.165h13.112v22.09c.001 1.447-1.177 2.626-2.625 2.626zm79.398-252.134c1.39 1.153 3.09 1.729 4.79 1.729 1.719 0 3.437-.588 4.832-1.764l22.82-19.225 22.961 19.056c1.39 1.153 3.09 1.729 4.79 1.729 1.719 0 3.437-.588 4.832-1.764l22.82-19.226 22.961 19.057c1.39 1.153 3.09 1.729 4.79 1.729 1.719 0 3.437-.588 4.832-1.764l22.82-19.225 22.961 19.056c1.39 1.153 3.09 1.729 4.79 1.729 1.719 0 3.437-.588 4.832-1.764l22.82-19.225 22.96 19.057c1.39 1.153 3.09 1.729 4.79 1.729 1.723 0 3.444-.591 4.842-1.772l15.183-12.834v36.592h-262.226v-36.012zm-11.306-28.876 15.962-13.447 16.059 13.329-15.961 13.447zm55.403-.204 15.961-13.447 16.06 13.329-15.961 13.447zm55.404-.204 15.961-13.447 16.06 13.329-15.961 13.447zm55.403-.203 15.961-13.447 16.06 13.329-15.961 13.447zm55.403-.205 15.953-13.44 15.997 13.322-15.899 13.44zm-226.107 67.591h262.227v37.099h-262.227zm259.726 172.235h-257.226c-1.379 0-2.5-1.122-2.5-2.5v-117.636h262.227v117.635c-.001 1.379-1.122 2.501-2.501 2.501zm2.5-327.669v71.677l-15.395-12.82c-2.796-2.327-6.854-2.314-9.632.027l-22.82 19.225-22.961-19.056c-2.794-2.319-6.846-2.304-9.622.035l-22.82 19.226-22.961-19.057c-2.794-2.319-6.846-2.304-9.622.035l-22.82 19.225-22.961-19.056c-2.794-2.319-6.846-2.304-9.622.035l-22.82 19.225-22.96-19.057c-2.794-2.319-6.846-2.304-9.622.035l-15.588 13.132v-5.567c0-4.142-3.357-7.5-7.5-7.5s-7.5 3.358-7.5 7.5v27.908l-36.541 36.542c-1.406 1.406-2.196 3.314-2.196 5.303v190.308c0 1.448-1.179 2.626-2.627 2.626h-50.896c-1.448 0-2.627-1.178-2.627-2.626v-210.4c0-8.619 3.296-16.779 9.281-22.98l85.605-88.693v29.022c0 4.142 3.357 7.5 7.5 7.5s7.5-3.358 7.5-7.5v-34.275c0-6.024 2.06-11.573 5.505-15.991l1.777-1.842c.313-.324.583-.671.826-1.032 4.679-4.455 11.001-7.199 17.956-7.199h210.098c6.988 0 13.337 2.769 18.022 7.262.246.368.521.722.839 1.051l1.697 1.758c3.447 4.419 5.507 9.969 5.507 15.994zm99.571 369.669h-35.973c-1.448 0-2.626-1.178-2.626-2.626v-22.09h13.112v7.165c0 4.142 3.357 7.5 7.5 7.5s7.5-3.358 7.5-7.5v-7.165h13.113v22.09c.001 1.447-1.178 2.626-2.626 2.626z"/><path d="m256.025 137.932h-.115c-4.142.018-7.485 3.39-7.468 7.532.018 4.131 3.372 7.468 7.499 7.468h.033.115c4.142-.018 7.485-3.39 7.468-7.532s-3.406-7.459-7.532-7.468z"/><path d="m311.66 137.932c-.011 0-.021 0-.032 0h-.116c-4.143.018-7.486 3.39-7.469 7.532.018 4.131 3.372 7.468 7.499 7.468h.032.116c4.143-.018 7.486-3.39 7.469-7.532-.017-4.131-3.372-7.468-7.499-7.468z"/><path d="m200.854 137.932c-.011 0-.021 0-.032 0h-.116c-4.143.018-7.486 3.39-7.469 7.532.018 4.131 3.372 7.468 7.499 7.468h.032.116c4.143-.018 7.486-3.39 7.469-7.532-.018-4.131-3.373-7.468-7.499-7.468z"/><path d="m145.418 137.932h-.116c-4.143.018-7.486 3.39-7.469 7.532.018 4.131 3.372 7.468 7.499 7.468h.032.116c4.143-.018 7.486-3.39 7.469-7.532s-3.387-7.459-7.531-7.468z"/><path d="m367.261 137.932c-.011 0-.021 0-.032 0h-.116c-4.143.018-7.486 3.39-7.469 7.532.018 4.131 3.372 7.468 7.499 7.468h.032.116c4.143-.018 7.486-3.39 7.469-7.532-.018-4.131-3.372-7.468-7.499-7.468z"/><path d="m175.347 401.502h-22.478c-4.143 0-7.5 3.358-7.5 7.5s3.357 7.5 7.5 7.5h22.478c4.143 0 7.5-3.358 7.5-7.5s-3.358-7.5-7.5-7.5z"/></g></g></svg>